<svg xmlns="http://www.w3.org/2000/svg" xmlns:xlink="http://www.w3.org/1999/xlink" width="500" zoomAndPan="magnify" viewBox="0 0 375 374.999991" height="500" preserveAspectRatio="xMidYMid meet" version="1.0"><defs><clipPath id="e2956a5df9"><path d="M 0 9.886719 L 375 9.886719 L 375 365.386719 L 0 365.386719 Z M 0 9.886719 " clip-rule="nonzero"/></clipPath></defs><path fill="#f0e4e0" d="M 341.160156 359.890625 L 33.839844 359.890625 C 18.167969 359.890625 5.496094 347.207031 5.496094 331.523438 L 5.496094 43.75 C 5.496094 28.066406 18.167969 15.382812 33.839844 15.382812 L 341.085938 15.382812 C 356.761719 15.382812 369.429688 28.066406 369.429688 43.75 L 369.429688 331.523438 C 369.503906 347.207031 356.832031 359.890625 341.160156 359.890625 Z M 341.160156 359.890625 " fill-opacity="1" fill-rule="nonzero"/><path fill="#e1d3ce" d="M 341.160156 15.382812 L 287.839844 15.382812 C 303.515625 15.382812 316.183594 28.066406 316.183594 43.75 L 316.183594 331.523438 C 316.183594 347.207031 303.515625 359.890625 287.839844 359.890625 L 341.160156 359.890625 C 356.832031 359.890625 369.503906 347.207031 369.503906 331.523438 L 369.503906 43.75 C 369.503906 28.066406 356.832031 15.382812 341.160156 15.382812 Z M 341.160156 15.382812 " fill-opacity="1" fill-rule="nonzero"/><path fill="#ee6161" d="M 234.082031 187.636719 C 234.082031 189.164062 234.007812 190.6875 233.855469 192.207031 C 233.707031 193.726562 233.484375 195.234375 233.1875 196.730469 C 232.886719 198.226562 232.519531 199.707031 232.074219 201.167969 C 231.632812 202.628906 231.121094 204.066406 230.535156 205.476562 C 229.953125 206.886719 229.300781 208.265625 228.582031 209.613281 C 227.863281 210.957031 227.078125 212.265625 226.230469 213.535156 C 225.382812 214.804688 224.476562 216.03125 223.507812 217.210938 C 222.539062 218.390625 221.515625 219.519531 220.4375 220.601562 C 219.359375 221.679688 218.230469 222.703125 217.050781 223.671875 C 215.871094 224.640625 214.648438 225.550781 213.378906 226.398438 C 212.109375 227.246094 210.804688 228.03125 209.457031 228.75 C 208.113281 229.46875 206.734375 230.121094 205.324219 230.707031 C 203.917969 231.289062 202.480469 231.804688 201.023438 232.246094 C 199.5625 232.691406 198.082031 233.0625 196.585938 233.359375 C 195.089844 233.65625 193.582031 233.878906 192.066406 234.03125 C 190.546875 234.179688 189.027344 234.253906 187.5 234.253906 C 185.972656 234.253906 184.453125 234.179688 182.933594 234.03125 C 181.414062 233.878906 179.910156 233.65625 178.414062 233.359375 C 176.917969 233.0625 175.4375 232.691406 173.976562 232.246094 C 172.519531 231.804688 171.082031 231.289062 169.675781 230.707031 C 168.265625 230.121094 166.886719 229.46875 165.542969 228.75 C 164.195312 228.03125 162.890625 227.246094 161.621094 226.398438 C 160.351562 225.550781 159.128906 224.640625 157.949219 223.671875 C 156.769531 222.703125 155.640625 221.679688 154.5625 220.601562 C 153.484375 219.519531 152.460938 218.390625 151.492188 217.210938 C 150.523438 216.03125 149.617188 214.804688 148.769531 213.535156 C 147.921875 212.265625 147.136719 210.957031 146.417969 209.613281 C 145.699219 208.265625 145.046875 206.886719 144.464844 205.476562 C 143.878906 204.066406 143.367188 202.628906 142.925781 201.167969 C 142.480469 199.707031 142.113281 198.226562 141.8125 196.730469 C 141.515625 195.234375 141.292969 193.726562 141.144531 192.207031 C 140.992188 190.6875 140.917969 189.164062 140.917969 187.636719 C 140.917969 186.109375 140.992188 184.585938 141.144531 183.066406 C 141.292969 181.546875 141.515625 180.039062 141.8125 178.542969 C 142.113281 177.042969 142.480469 175.566406 142.925781 174.105469 C 143.367188 172.644531 143.878906 171.207031 144.464844 169.796875 C 145.046875 168.386719 145.699219 167.007812 146.417969 165.660156 C 147.136719 164.3125 147.921875 163.007812 148.769531 161.738281 C 149.617188 160.46875 150.523438 159.242188 151.492188 158.0625 C 152.460938 156.882812 153.484375 155.75 154.5625 154.671875 C 155.640625 153.59375 156.769531 152.570312 157.949219 151.601562 C 159.128906 150.632812 160.351562 149.722656 161.621094 148.875 C 162.890625 148.027344 164.195312 147.242188 165.542969 146.523438 C 166.886719 145.804688 168.265625 145.152344 169.675781 144.566406 C 171.082031 143.984375 172.519531 143.46875 173.976562 143.027344 C 175.4375 142.582031 176.917969 142.210938 178.414062 141.914062 C 179.910156 141.617188 181.414062 141.390625 182.933594 141.242188 C 184.453125 141.09375 185.972656 141.019531 187.5 141.019531 C 189.027344 141.019531 190.546875 141.09375 192.066406 141.242188 C 193.582031 141.390625 195.089844 141.617188 196.585938 141.914062 C 198.082031 142.210938 199.5625 142.582031 201.023438 143.027344 C 202.480469 143.46875 203.917969 143.984375 205.324219 144.566406 C 206.734375 145.152344 208.113281 145.804688 209.457031 146.523438 C 210.804688 147.242188 212.109375 148.027344 213.378906 148.875 C 214.648438 149.722656 215.871094 150.632812 217.050781 151.601562 C 218.230469 152.570312 219.359375 153.59375 220.4375 154.671875 C 221.515625 155.75 222.539062 156.882812 223.507812 158.0625 C 224.476562 159.242188 225.382812 160.46875 226.230469 161.738281 C 227.078125 163.007812 227.863281 164.3125 228.582031 165.660156 C 229.300781 167.007812 229.953125 168.386719 230.535156 169.796875 C 231.121094 171.207031 231.632812 172.644531 232.074219 174.105469 C 232.519531 175.566406 232.886719 177.042969 233.1875 178.542969 C 233.484375 180.039062 233.707031 181.546875 233.855469 183.066406 C 234.007812 184.585938 234.082031 186.109375 234.082031 187.636719 Z M 234.082031 187.636719 " fill-opacity="1" fill-rule="nonzero"/><path fill="#e94444" d="M 187.5 141.019531 C 184.71875 141.019531 182.007812 141.3125 179.296875 141.75 C 201.121094 145.636719 217.75 164.695312 217.75 187.636719 C 217.75 210.578125 201.121094 229.710938 179.296875 233.523438 C 181.933594 233.960938 184.644531 234.253906 187.5 234.253906 C 213.207031 234.253906 234.082031 213.363281 234.082031 187.636719 C 234.082031 161.910156 213.207031 141.019531 187.5 141.019531 Z M 187.5 141.019531 " fill-opacity="1" fill-rule="nonzero"/><path fill="#98bce5" d="M 207.496094 187.636719 C 207.496094 188.292969 207.460938 188.945312 207.398438 189.597656 C 207.335938 190.25 207.238281 190.898438 207.109375 191.539062 C 206.984375 192.183594 206.824219 192.816406 206.632812 193.445312 C 206.445312 194.074219 206.222656 194.6875 205.972656 195.292969 C 205.722656 195.898438 205.441406 196.492188 205.132812 197.070312 C 204.824219 197.648438 204.488281 198.207031 204.125 198.753906 C 203.761719 199.296875 203.371094 199.824219 202.957031 200.332031 C 202.539062 200.835938 202.101562 201.324219 201.636719 201.785156 C 201.175781 202.25 200.691406 202.6875 200.183594 203.105469 C 199.679688 203.519531 199.152344 203.910156 198.609375 204.273438 C 198.0625 204.636719 197.503906 204.976562 196.925781 205.285156 C 196.347656 205.59375 195.757812 205.871094 195.152344 206.125 C 194.546875 206.375 193.929688 206.59375 193.304688 206.785156 C 192.675781 206.976562 192.042969 207.132812 191.402344 207.261719 C 190.757812 207.390625 190.113281 207.488281 189.460938 207.550781 C 188.808594 207.613281 188.15625 207.648438 187.5 207.648438 C 186.84375 207.648438 186.191406 207.613281 185.539062 207.550781 C 184.886719 207.488281 184.242188 207.390625 183.597656 207.261719 C 182.957031 207.132812 182.324219 206.976562 181.695312 206.785156 C 181.070312 206.59375 180.453125 206.375 179.847656 206.125 C 179.242188 205.871094 178.652344 205.59375 178.074219 205.285156 C 177.496094 204.976562 176.9375 204.636719 176.390625 204.273438 C 175.847656 203.910156 175.320312 203.519531 174.816406 203.105469 C 174.308594 202.6875 173.824219 202.25 173.363281 201.785156 C 172.898438 201.324219 172.460938 200.835938 172.042969 200.332031 C 171.628906 199.824219 171.238281 199.296875 170.875 198.753906 C 170.511719 198.207031 170.175781 197.648438 169.867188 197.070312 C 169.558594 196.492188 169.277344 195.898438 169.027344 195.292969 C 168.777344 194.6875 168.554688 194.070312 168.367188 193.445312 C 168.175781 192.816406 168.015625 192.183594 167.890625 191.539062 C 167.761719 190.898438 167.664062 190.25 167.601562 189.597656 C 167.539062 188.945312 167.503906 188.292969 167.503906 187.636719 C 167.503906 186.980469 167.539062 186.328125 167.601562 185.675781 C 167.664062 185.023438 167.761719 184.375 167.890625 183.734375 C 168.015625 183.089844 168.175781 182.453125 168.367188 181.828125 C 168.554688 181.199219 168.777344 180.585938 169.027344 179.980469 C 169.277344 179.375 169.558594 178.78125 169.867188 178.203125 C 170.175781 177.625 170.511719 177.0625 170.875 176.519531 C 171.238281 175.972656 171.628906 175.449219 172.042969 174.941406 C 172.460938 174.433594 172.898438 173.949219 173.363281 173.488281 C 173.824219 173.023438 174.308594 172.582031 174.816406 172.167969 C 175.320312 171.753906 175.847656 171.363281 176.390625 171 C 176.9375 170.632812 177.496094 170.296875 178.074219 169.988281 C 178.652344 169.679688 179.242188 169.398438 179.847656 169.148438 C 180.453125 168.898438 181.070312 168.675781 181.695312 168.488281 C 182.324219 168.296875 182.957031 168.136719 183.597656 168.011719 C 184.242188 167.882812 184.886719 167.785156 185.539062 167.722656 C 186.191406 167.65625 186.84375 167.625 187.5 167.625 C 188.15625 167.625 188.808594 167.65625 189.460938 167.722656 C 190.113281 167.785156 190.757812 167.882812 191.402344 168.011719 C 192.042969 168.136719 192.675781 168.296875 193.304688 168.488281 C 193.929688 168.675781 194.546875 168.898438 195.152344 169.148438 C 195.757812 169.398438 196.347656 169.679688 196.925781 169.988281 C 197.503906 170.296875 198.0625 170.632812 198.609375 171 C 199.152344 171.363281 199.679688 171.753906 200.183594 172.167969 C 200.691406 172.582031 201.175781 173.023438 201.636719 173.488281 C 202.101562 173.949219 202.539062 174.433594 202.957031 174.941406 C 203.371094 175.449219 203.761719 175.972656 204.125 176.519531 C 204.488281 177.0625 204.824219 177.625 205.132812 178.203125 C 205.441406 178.78125 205.722656 179.375 205.972656 179.980469 C 206.222656 180.585938 206.445312 181.199219 206.632812 181.828125 C 206.824219 182.453125 206.984375 183.089844 207.109375 183.734375 C 207.238281 184.375 207.335938 185.023438 207.398438 185.675781 C 207.460938 186.328125 207.496094 186.980469 207.496094 187.636719 Z M 207.496094 187.636719 " fill-opacity="1" fill-rule="nonzero"/><path fill="#7bacdf" d="M 187.5 167.625 C 184.570312 167.625 181.859375 168.285156 179.296875 169.386719 C 186.253906 172.535156 191.160156 179.5 191.160156 187.636719 C 191.160156 195.773438 186.328125 202.808594 179.296875 205.886719 C 181.789062 206.988281 184.570312 207.648438 187.5 207.648438 C 198.558594 207.648438 207.496094 198.703125 207.496094 187.636719 C 207.496094 176.566406 198.558594 167.625 187.5 167.625 Z M 187.5 167.625 " fill-opacity="1" fill-rule="nonzero"/><g clip-path="url(#e2956a5df9)"><path fill="#000000" d="M 341.160156 9.886719 L 287.546875 9.886719 C 284.542969 9.886719 282.054688 12.378906 282.054688 15.382812 C 282.054688 18.390625 284.542969 20.882812 287.546875 20.882812 L 341.160156 20.882812 C 353.757812 20.882812 364.011719 31.144531 364.011719 43.75 L 364.011719 331.523438 C 364.011719 344.128906 353.757812 354.390625 341.160156 354.390625 L 33.839844 354.390625 C 21.242188 354.390625 10.988281 344.128906 10.988281 331.523438 L 10.988281 43.75 C 10.988281 31.144531 21.242188 20.882812 33.839844 20.882812 L 261.765625 20.882812 C 264.769531 20.882812 267.257812 18.390625 267.257812 15.382812 C 267.257812 12.378906 264.769531 9.886719 261.765625 9.886719 L 33.839844 9.886719 C 15.164062 9.886719 0.00390625 25.058594 0.00390625 43.75 L 0.00390625 331.523438 C 0.00390625 350.214844 15.164062 365.386719 33.839844 365.386719 L 341.085938 365.386719 C 359.761719 365.386719 374.921875 350.214844 374.921875 331.523438 L 374.921875 43.75 C 374.996094 25.058594 359.835938 9.886719 341.160156 9.886719 Z M 341.160156 9.886719 " fill-opacity="1" fill-rule="nonzero"/></g><path fill="#000000" d="M 340.941406 44.628906 C 338.816406 42.503906 335.300781 42.503906 333.175781 44.628906 L 320.503906 57.3125 C 318.382812 59.4375 318.382812 62.953125 320.503906 65.082031 C 321.605469 66.179688 322.996094 66.691406 324.386719 66.691406 C 325.777344 66.691406 327.171875 66.179688 328.269531 65.082031 L 340.941406 52.398438 C 343.0625 50.273438 343.0625 46.753906 340.941406 44.628906 Z M 340.941406 44.628906 " fill-opacity="1" fill-rule="nonzero"/><path fill="#000000" d="M 46.730469 65.082031 C 47.828125 66.179688 49.222656 66.691406 50.613281 66.691406 C 52.003906 66.691406 53.394531 66.179688 54.496094 65.082031 C 56.617188 62.953125 56.617188 59.4375 54.496094 57.3125 L 41.824219 44.628906 C 39.699219 42.503906 36.183594 42.503906 34.058594 44.628906 C 31.9375 46.753906 31.9375 50.273438 34.058594 52.398438 Z M 46.730469 65.082031 " fill-opacity="1" fill-rule="nonzero"/><path fill="#000000" d="M 328.269531 310.191406 C 326.144531 308.066406 322.628906 308.066406 320.503906 310.191406 C 318.382812 312.316406 318.382812 315.835938 320.503906 317.960938 L 333.175781 330.644531 C 334.273438 331.742188 335.667969 332.253906 337.058594 332.253906 C 338.449219 332.253906 339.839844 331.742188 340.941406 330.644531 C 343.0625 328.515625 343.0625 325 340.941406 322.871094 Z M 328.269531 310.191406 " fill-opacity="1" fill-rule="nonzero"/><path fill="#000000" d="M 34.058594 330.644531 C 35.160156 331.742188 36.550781 332.253906 37.941406 332.253906 C 39.332031 332.253906 40.726562 331.742188 41.824219 330.644531 L 54.496094 317.960938 C 56.617188 315.835938 56.617188 312.316406 54.496094 310.191406 C 52.371094 308.066406 48.855469 308.066406 46.730469 310.191406 L 34.058594 322.871094 C 31.9375 325 31.9375 328.515625 34.058594 330.644531 Z M 34.058594 330.644531 " fill-opacity="1" fill-rule="nonzero"/><path fill="#000000" d="M 187.5 162.128906 C 173.4375 162.128906 162.011719 173.5625 162.011719 187.636719 C 162.011719 195.480469 165.527344 202.808594 171.753906 207.648438 C 174.171875 209.550781 177.613281 209.113281 179.445312 206.765625 C 181.273438 204.421875 180.910156 200.902344 178.566406 199.070312 C 175.050781 196.285156 173 192.109375 173 187.636719 C 173 179.648438 179.515625 173.125 187.5 173.125 C 195.484375 173.125 202 179.648438 202 187.636719 C 202 192.253906 199.878906 196.503906 196.214844 199.289062 C 193.796875 201.125 193.285156 204.570312 195.117188 206.988281 C 196.214844 208.453125 197.828125 209.1875 199.511719 209.1875 C 200.683594 209.1875 201.78125 208.820312 202.808594 208.085938 C 209.253906 203.25 212.988281 195.773438 212.988281 187.710938 C 212.988281 173.5625 201.5625 162.128906 187.5 162.128906 Z M 187.5 162.128906 " fill-opacity="1" fill-rule="nonzero"/><path fill="#000000" d="M 253.195312 72.191406 C 251.953125 74.316406 250.121094 75.636719 253.195312 79.960938 L 265.5 92.273438 L 240.964844 96.820312 C 237.964844 97.40625 235.984375 100.265625 236.570312 103.195312 C 237.15625 106.203125 240.015625 108.179688 242.945312 107.59375 L 260.300781 104.367188 L 218.773438 145.929688 C 211.230469 140.285156 202.367188 136.765625 192.992188 135.742188 L 192.992188 112.945312 L 203.832031 112.945312 C 206.835938 112.945312 209.324219 110.453125 209.324219 107.449219 C 209.324219 104.441406 206.835938 101.949219 203.832031 101.949219 L 192.992188 101.949219 L 192.992188 93.375 L 203.832031 93.375 C 206.835938 93.375 209.324219 90.882812 209.324219 87.875 C 209.324219 84.871094 206.835938 82.378906 203.832031 82.378906 L 192.992188 82.378906 L 192.992188 64.273438 L 215.257812 64.273438 C 218.261719 64.273438 220.75 61.78125 220.75 58.777344 L 220.75 40.746094 C 220.75 37.738281 218.261719 35.246094 215.257812 35.246094 C 212.253906 35.246094 209.765625 37.738281 209.765625 40.746094 L 209.765625 53.207031 L 192.992188 53.207031 L 192.992188 40.746094 C 192.992188 37.738281 190.503906 35.246094 187.5 35.246094 C 184.496094 35.246094 182.007812 37.738281 182.007812 40.746094 L 182.007812 53.207031 L 165.234375 53.207031 L 165.234375 40.746094 C 165.234375 37.738281 162.746094 35.246094 159.742188 35.246094 C 156.738281 35.246094 154.25 37.738281 154.25 40.746094 L 154.25 58.703125 C 154.25 61.707031 156.738281 64.199219 159.742188 64.199219 L 182.007812 64.199219 L 182.007812 82.378906 L 171.167969 82.378906 C 168.164062 82.378906 165.675781 84.871094 165.675781 87.875 C 165.675781 90.882812 168.164062 93.375 171.167969 93.375 L 182.007812 93.375 L 182.007812 101.949219 L 171.167969 101.949219 C 168.164062 101.949219 165.675781 104.441406 165.675781 107.449219 C 165.675781 110.453125 168.164062 112.945312 171.167969 112.945312 L 182.007812 112.945312 L 182.007812 135.742188 C 172.632812 136.695312 163.695312 140.210938 156.226562 145.929688 L 96.609375 86.265625 L 119.09375 81.425781 C 121.070312 80.988281 122.609375 79.519531 123.195312 77.613281 C 123.78125 75.707031 123.269531 73.582031 121.804688 72.191406 L 107.667969 58.042969 C 105.542969 55.917969 102.027344 55.917969 99.902344 58.042969 C 97.78125 60.167969 97.78125 63.6875 99.902344 65.8125 L 106.933594 72.851562 L 84.449219 77.6875 C 82.765625 78.128906 80.714844 79.445312 80.203125 81.9375 L 75.367188 104.441406 L 68.335938 97.40625 C 66.214844 95.28125 62.699219 95.28125 60.574219 97.40625 C 58.449219 99.53125 58.449219 103.050781 60.574219 105.175781 L 74.707031 119.320312 C 75.734375 120.347656 77.125 120.933594 78.589844 120.933594 C 79.101562 120.933594 79.617188 120.859375 80.128906 120.714844 C 82.03125 120.128906 83.496094 118.589844 83.9375 116.609375 L 88.769531 94.105469 L 148.097656 153.550781 C 141.652344 160.957031 137.476562 169.972656 135.9375 179.648438 L 95.949219 179.648438 L 95.949219 165.132812 C 95.949219 162.128906 93.457031 159.636719 90.457031 159.636719 C 87.453125 159.636719 84.960938 162.128906 84.960938 165.132812 L 84.960938 179.574219 L 66.800781 179.574219 L 66.800781 157.289062 C 66.800781 154.285156 64.308594 151.792969 61.304688 151.792969 L 41.238281 151.792969 C 38.234375 151.792969 35.746094 154.285156 35.746094 157.289062 C 35.746094 160.296875 38.234375 162.789062 41.238281 162.789062 L 55.738281 162.789062 L 55.738281 179.574219 L 43.289062 179.574219 C 40.285156 179.574219 37.796875 182.066406 37.796875 185.070312 C 37.796875 188.074219 40.285156 190.566406 43.289062 190.566406 L 55.738281 190.566406 L 55.738281 207.355469 L 43.289062 207.355469 C 40.285156 207.355469 37.796875 209.847656 37.796875 212.851562 C 37.796875 215.855469 40.285156 218.347656 43.289062 218.347656 L 61.234375 218.347656 C 64.234375 218.347656 66.726562 215.855469 66.726562 212.851562 L 66.726562 190.566406 L 84.960938 190.566406 L 84.960938 205.082031 C 84.960938 208.085938 87.453125 210.578125 90.457031 210.578125 C 93.457031 210.578125 95.949219 208.085938 95.949219 205.082031 L 95.949219 190.566406 L 135.5 190.566406 C 136.085938 200.902344 139.671875 210.726562 145.898438 218.933594 L 106.933594 257.929688 L 110.15625 240.558594 C 110.742188 237.554688 108.765625 234.695312 105.761719 234.179688 C 102.761719 233.59375 99.902344 235.574219 99.390625 238.578125 L 94.851562 263.132812 L 82.546875 250.820312 C 80.421875 248.695312 76.90625 248.695312 74.78125 250.820312 L 60.648438 264.964844 C 58.523438 267.09375 58.523438 270.609375 60.648438 272.738281 C 62.769531 274.863281 66.285156 274.863281 68.410156 272.738281 L 78.664062 262.472656 L 94.335938 278.160156 C 94.335938 278.160156 94.410156 278.234375 94.410156 278.234375 C 94.410156 278.234375 94.484375 278.308594 94.484375 278.308594 L 110.15625 293.992188 L 99.902344 304.253906 C 97.78125 306.378906 97.78125 309.898438 99.902344 312.023438 C 101.003906 313.125 102.394531 313.636719 103.785156 313.636719 C 105.175781 313.636719 106.570312 313.125 107.667969 312.023438 L 121.804688 297.878906 C 123.925781 295.753906 123.925781 292.234375 121.804688 290.109375 L 109.5 277.792969 L 134.035156 273.25 C 137.035156 272.664062 139.015625 269.804688 138.429688 266.871094 C 137.84375 263.867188 134.984375 261.886719 132.054688 262.472656 L 114.699219 265.699219 L 153.371094 226.996094 C 161.425781 233.960938 171.460938 238.359375 182.007812 239.457031 L 182.007812 257.125 L 171.167969 257.125 C 168.164062 257.125 165.675781 259.617188 165.675781 262.621094 C 165.675781 265.625 168.164062 268.117188 171.167969 268.117188 L 182.007812 268.117188 L 182.007812 276.695312 L 171.167969 276.695312 C 168.164062 276.695312 165.675781 279.1875 165.675781 282.191406 C 165.675781 285.199219 168.164062 287.6875 171.167969 287.6875 L 182.007812 287.6875 L 182.007812 305.867188 L 159.742188 305.867188 C 156.738281 305.867188 154.25 308.359375 154.25 311.363281 L 154.25 329.324219 C 154.25 332.328125 156.738281 334.820312 159.742188 334.820312 C 162.746094 334.820312 165.234375 332.328125 165.234375 329.324219 L 165.234375 316.863281 L 182.007812 316.863281 L 182.007812 329.324219 C 182.007812 332.328125 184.496094 334.820312 187.5 334.820312 C 190.503906 334.820312 192.992188 332.328125 192.992188 329.324219 L 192.992188 316.863281 L 209.765625 316.863281 L 209.765625 329.324219 C 209.765625 332.328125 212.253906 334.820312 215.257812 334.820312 C 218.261719 334.820312 220.75 332.328125 220.75 329.324219 L 220.75 311.363281 C 220.75 308.359375 218.261719 305.867188 215.257812 305.867188 L 192.992188 305.867188 L 192.992188 287.6875 L 203.832031 287.6875 C 206.835938 287.6875 209.324219 285.199219 209.324219 282.191406 C 209.324219 279.1875 206.835938 276.695312 203.832031 276.695312 L 192.992188 276.695312 L 192.992188 268.117188 L 203.832031 268.117188 C 206.835938 268.117188 209.324219 265.625 209.324219 262.621094 C 209.324219 259.617188 206.835938 257.125 203.832031 257.125 L 192.992188 257.125 L 192.992188 239.457031 C 203.539062 238.359375 213.574219 233.960938 221.628906 226.996094 L 278.464844 283.878906 L 255.980469 288.714844 C 254.003906 289.15625 252.464844 290.621094 251.878906 292.527344 C 251.292969 294.433594 251.804688 296.558594 253.269531 297.953125 L 267.40625 312.097656 C 268.503906 313.199219 269.894531 313.710938 271.289062 313.710938 C 272.679688 313.710938 274.070312 313.199219 275.167969 312.097656 C 277.292969 309.972656 277.292969 306.453125 275.167969 304.328125 L 268.136719 297.292969 L 290.625 292.453125 C 292.308594 292.015625 294.359375 290.769531 294.871094 288.203125 L 299.707031 265.699219 L 306.734375 272.738281 C 308.859375 274.863281 312.375 274.863281 314.5 272.738281 C 316.625 270.609375 316.625 267.09375 314.5 264.964844 L 300.292969 250.820312 C 298.898438 249.425781 296.777344 248.839844 294.871094 249.425781 C 292.96875 250.015625 291.503906 251.554688 291.0625 253.53125 L 286.230469 276.035156 L 229.175781 218.933594 C 235.398438 210.726562 238.988281 200.902344 239.574219 190.566406 L 279.125 190.566406 L 279.125 205.082031 C 279.125 208.085938 281.613281 210.578125 284.617188 210.578125 C 287.621094 210.578125 290.109375 208.085938 290.109375 205.082031 L 290.109375 190.566406 L 308.273438 190.566406 L 308.273438 212.851562 C 308.273438 215.855469 310.765625 218.347656 313.765625 218.347656 L 331.710938 218.347656 C 334.714844 218.347656 337.203125 215.855469 337.203125 212.851562 C 337.203125 209.847656 334.714844 207.355469 331.710938 207.355469 L 319.261719 207.355469 L 319.261719 190.566406 L 331.710938 190.566406 C 334.714844 190.566406 337.203125 188.074219 337.203125 185.070312 C 337.203125 182.066406 334.714844 179.574219 331.710938 179.574219 L 319.261719 179.574219 L 319.261719 162.789062 L 331.710938 162.789062 C 334.714844 162.789062 337.203125 160.296875 337.203125 157.289062 C 337.203125 154.285156 334.714844 151.792969 331.710938 151.792969 L 313.765625 151.792969 C 310.765625 151.792969 308.273438 154.285156 308.273438 157.289062 L 308.273438 179.574219 L 290.039062 179.574219 L 290.039062 165.058594 C 290.039062 162.054688 287.546875 159.5625 284.542969 159.5625 C 281.542969 159.5625 279.050781 162.054688 279.050781 165.058594 L 279.050781 179.574219 L 238.914062 179.574219 C 237.449219 169.898438 233.203125 160.882812 226.757812 153.480469 L 267.992188 112.210938 L 264.769531 129.582031 C 264.183594 132.589844 266.160156 135.449219 269.164062 135.960938 C 269.53125 136.035156 269.824219 136.035156 270.1875 136.035156 C 272.753906 136.035156 275.097656 134.203125 275.609375 131.5625 L 280.148438 107.007812 L 292.453125 119.320312 C 293.554688 120.421875 294.945312 120.933594 296.335938 120.933594 C 297.726562 120.933594 299.121094 120.421875 300.21875 119.320312 L 314.351562 105.175781 C 316.476562 103.050781 316.476562 99.53125 314.351562 97.40625 C 312.230469 95.28125 308.714844 95.28125 306.589844 97.40625 L 296.335938 107.667969 L 264.84375 76.148438 L 275.097656 65.886719 C 277.21875 63.761719 277.21875 60.242188 275.097656 58.117188 C 272.972656 55.992188 269.457031 55.992188 267.332031 58.117188 Z M 187.5 228.757812 C 165.160156 229.125 144.652344 208.671875 146.484375 185.363281 C 147.144531 164.695312 166.039062 146.074219 187.5 146.515625 C 208.960938 146.148438 229.101562 165.132812 228.589844 187.636719 C 229.101562 209.1875 209.765625 229.269531 187.5 228.757812 Z M 187.5 228.757812 " fill-opacity="1" fill-rule="nonzero"/></svg>