<svg xmlns="http://www.w3.org/2000/svg" xmlns:xlink="http://www.w3.org/1999/xlink" width="500" zoomAndPan="magnify" viewBox="0 0 375 374.999991" height="500" preserveAspectRatio="xMidYMid meet" version="1.0"><defs><clipPath id="de88818cc0"><path d="M 187 0 L 200 0 L 200 374.792969 L 187 374.792969 Z M 187 0 " clip-rule="nonzero"/></clipPath><clipPath id="d0d3fdf593"><path d="M 163 351 L 223 351 L 223 374.792969 L 163 374.792969 Z M 163 351 " clip-rule="nonzero"/></clipPath><clipPath id="c261eb457b"><path d="M 134 316 L 252 316 L 252 374.792969 L 134 374.792969 Z M 134 316 " clip-rule="nonzero"/></clipPath><clipPath id="4a9acce0a0"><path d="M 0 181 L 374.792969 181 L 374.792969 194 L 0 194 Z M 0 181 " clip-rule="nonzero"/></clipPath><clipPath id="e0a800c9b5"><path d="M 345 158 L 374.792969 158 L 374.792969 217 L 345 217 Z M 345 158 " clip-rule="nonzero"/></clipPath></defs><g clip-path="url(#de88818cc0)"><path fill="#ffffff" d="M 199.09375 374.792969 L 187.386719 374.792969 L 187.386719 0.0195312 L 199.09375 0.0195312 L 199.09375 374.792969 " fill-opacity="1" fill-rule="nonzero"/></g><path fill="#ffffff" d="M 222.527344 29.296875 L 163.972656 29.296875 L 163.972656 0.0195312 L 175.679688 0.0195312 L 175.679688 17.589844 L 210.820312 17.589844 L 210.820312 0.0195312 L 222.527344 0.0195312 L 222.527344 29.296875 " fill-opacity="1" fill-rule="nonzero"/><g clip-path="url(#d0d3fdf593)"><path fill="#ffffff" d="M 222.527344 374.792969 L 210.820312 374.792969 L 210.820312 363.085938 L 175.679688 363.085938 L 175.679688 374.792969 L 163.972656 374.792969 L 163.972656 351.359375 L 222.527344 351.359375 L 222.527344 374.792969 " fill-opacity="1" fill-rule="nonzero"/></g><g clip-path="url(#c261eb457b)"><path fill="#ffffff" d="M 251.804688 374.792969 L 240.074219 374.792969 L 240.074219 327.945312 L 146.402344 327.945312 L 146.402344 374.792969 L 134.675781 374.792969 L 134.675781 316.238281 L 251.804688 316.238281 L 251.804688 374.792969 " fill-opacity="1" fill-rule="nonzero"/></g><path fill="#ffffff" d="M 152.246094 368.929688 L 128.832031 368.929688 L 128.832031 357.222656 L 152.246094 357.222656 L 152.246094 368.929688 " fill-opacity="1" fill-rule="nonzero"/><path fill="#ffffff" d="M 257.644531 368.929688 L 234.234375 368.929688 L 234.234375 357.222656 L 257.644531 357.222656 L 257.644531 368.929688 " fill-opacity="1" fill-rule="nonzero"/><path fill="#ffffff" d="M 169.816406 339.652344 L 158.109375 339.652344 L 158.109375 316.238281 L 169.816406 316.238281 L 169.816406 339.652344 " fill-opacity="1" fill-rule="nonzero"/><path fill="#ffffff" d="M 228.371094 339.652344 L 216.664062 339.652344 L 216.664062 316.238281 L 228.371094 316.238281 L 228.371094 339.652344 " fill-opacity="1" fill-rule="nonzero"/><path fill="#ffffff" d="M 210.820312 52.730469 L 175.679688 52.730469 L 175.679688 41.003906 L 210.820312 41.003906 L 210.820312 52.730469 " fill-opacity="1" fill-rule="nonzero"/><path fill="#ffffff" d="M 210.820312 76.144531 L 175.679688 76.144531 L 175.679688 64.4375 L 210.820312 64.4375 L 210.820312 76.144531 " fill-opacity="1" fill-rule="nonzero"/><path fill="#ffffff" d="M 204.957031 99.578125 L 181.523438 99.578125 L 181.523438 87.851562 L 204.957031 87.851562 L 204.957031 99.578125 " fill-opacity="1" fill-rule="nonzero"/><g clip-path="url(#4a9acce0a0)"><path fill="#ffffff" d="M 374.773438 193.269531 L 0 193.269531 L 0 181.542969 L 374.773438 181.542969 L 374.773438 193.269531 " fill-opacity="1" fill-rule="nonzero"/></g><g clip-path="url(#e0a800c9b5)"><path fill="#ffffff" d="M 374.773438 216.683594 L 345.496094 216.683594 L 345.496094 158.128906 L 374.773438 158.128906 L 374.773438 169.835938 L 357.203125 169.835938 L 357.203125 204.976562 L 374.773438 204.976562 L 374.773438 216.683594 " fill-opacity="1" fill-rule="nonzero"/></g><path fill="#ffffff" d="M 40.984375 240.117188 L 0 240.117188 L 0 228.390625 L 29.277344 228.390625 L 29.277344 146.421875 L 0 146.421875 L 0 134.695312 L 40.984375 134.695312 L 40.984375 240.117188 " fill-opacity="1" fill-rule="nonzero"/><path fill="#ffffff" d="M 40.984375 169.835938 L 0 169.835938 L 0 158.128906 L 40.984375 158.128906 L 40.984375 169.835938 " fill-opacity="1" fill-rule="nonzero"/><path fill="#ffffff" d="M 40.984375 216.683594 L 0 216.683594 L 0 204.976562 L 40.984375 204.976562 L 40.984375 216.683594 " fill-opacity="1" fill-rule="nonzero"/><path fill="#ffffff" d="M 298.648438 204.976562 L 286.941406 204.976562 L 286.941406 169.835938 L 298.648438 169.835938 L 298.648438 204.976562 " fill-opacity="1" fill-rule="nonzero"/><path fill="#ffffff" d="M 319.972656 212.992188 L 317.011719 207.917969 C 309.058594 194.304688 309.058594 180.507812 317.011719 166.894531 L 319.972656 161.824219 L 330.078125 167.726562 L 327.136719 172.796875 C 321.394531 182.617188 321.394531 192.195312 327.136719 202.015625 L 330.078125 207.085938 L 319.972656 212.992188 " fill-opacity="1" fill-rule="nonzero"/><path fill="#ffffff" d="M 63.160156 319.914062 L 54.882812 311.613281 L 319.890625 46.625 L 328.167969 54.902344 L 63.160156 319.914062 " fill-opacity="1" fill-rule="nonzero"/><path fill="#ffffff" d="M 324.03125 92.171875 L 282.621094 50.761719 L 303.316406 30.066406 L 311.613281 38.34375 L 299.175781 50.761719 L 324.03125 75.617188 L 336.449219 63.179688 L 344.726562 71.476562 L 324.03125 92.171875 " fill-opacity="1" fill-rule="nonzero"/><path fill="#ffffff" d="M 88.011719 344.746094 L 79.734375 336.46875 L 104.566406 311.613281 L 63.160156 270.226562 L 38.324219 295.058594 L 30.046875 286.78125 L 63.160156 253.648438 L 121.144531 311.613281 L 88.011719 344.746094 " fill-opacity="1" fill-rule="nonzero"/><path fill="#ffffff" d="M 274.324219 128.304688 L 272.820312 122.644531 C 269.921875 111.628906 263.164062 104.871094 252.148438 101.972656 L 246.488281 100.46875 L 249.46875 89.148438 L 255.128906 90.648438 C 270.367188 94.667969 280.125 104.425781 284.144531 119.664062 L 285.644531 125.324219 L 274.324219 128.304688 " fill-opacity="1" fill-rule="nonzero"/><path fill="#ffffff" d="M 306.96875 103.980469 L 301.328125 102.5 C 286.070312 98.480469 276.3125 88.722656 272.292969 73.464844 L 270.8125 67.804688 L 282.132812 64.824219 L 283.617188 70.484375 C 286.515625 81.5 293.292969 88.277344 304.308594 91.15625 L 309.96875 92.660156 L 306.96875 103.980469 " fill-opacity="1" fill-rule="nonzero"/><path fill="#ffffff" d="M 112.847656 286.78125 L 88.011719 261.925781 L 96.289062 253.648438 L 121.144531 278.503906 L 112.847656 286.78125 " fill-opacity="1" fill-rule="nonzero"/><path fill="#ffffff" d="M 141.878906 269.089844 L 136.21875 267.585938 C 120.960938 263.589844 111.203125 253.832031 107.207031 238.574219 L 105.703125 232.914062 L 117.023438 229.933594 L 118.527344 235.613281 C 121.40625 246.609375 128.183594 253.386719 139.179688 256.265625 L 144.859375 257.769531 L 141.878906 269.089844 " fill-opacity="1" fill-rule="nonzero"/><path fill="#ffffff" d="M 79.734375 319.914062 L 54.882812 295.058594 L 63.160156 286.78125 L 88.011719 311.613281 L 79.734375 319.914062 " fill-opacity="1" fill-rule="nonzero"/><path fill="#ffffff" d="M 324.03125 332.328125 L 59.019531 67.316406 L 67.316406 59.039062 L 332.308594 324.050781 L 324.03125 332.328125 " fill-opacity="1" fill-rule="nonzero"/><path fill="#ffffff" d="M 307.476562 348.882812 L 286.761719 328.191406 L 328.167969 286.78125 L 348.863281 307.476562 L 340.585938 315.773438 L 328.167969 303.335938 L 303.316406 328.191406 L 315.753906 340.605469 L 307.476562 348.882812 " fill-opacity="1" fill-rule="nonzero"/><path fill="#ffffff" d="M 75.59375 150.136719 L 25.910156 100.449219 L 34.1875 92.171875 L 75.59375 133.582031 L 133.558594 75.617188 L 92.152344 34.207031 L 100.429688 25.910156 L 150.117188 75.617188 L 75.59375 150.136719 " fill-opacity="1" fill-rule="nonzero"/><path fill="#ffffff" d="M 278.484375 311.613281 L 270.203125 303.335938 L 303.316406 270.226562 L 311.613281 278.503906 L 278.484375 311.613281 " fill-opacity="1" fill-rule="nonzero"/><path fill="#ffffff" d="M 266.046875 290.917969 L 257.769531 282.640625 L 282.621094 257.808594 L 290.898438 266.085938 L 266.046875 290.917969 " fill-opacity="1" fill-rule="nonzero"/><path fill="#ffffff" d="M 121.164062 149.019531 L 109.84375 146.039062 L 111.324219 140.378906 C 115.339844 125.121094 125.101562 115.363281 140.355469 111.363281 L 146.019531 109.863281 L 149 121.183594 L 143.320312 122.6875 C 132.324219 125.566406 125.566406 132.34375 122.664062 143.339844 L 121.164062 149.019531 " fill-opacity="1" fill-rule="nonzero"/><path fill="#ffffff" d="M 61.453125 61.476562 L 61.515625 61.476562 Z M 78.011719 60.460938 C 73.324219 60.460938 68.902344 62.285156 65.59375 65.613281 C 62.265625 68.921875 60.441406 73.34375 60.441406 78.03125 C 60.441406 82.71875 62.265625 87.140625 65.59375 90.445312 C 72.226562 97.082031 83.792969 97.082031 90.425781 90.445312 C 93.753906 87.140625 95.578125 82.71875 95.578125 78.03125 C 95.578125 73.34375 93.753906 68.921875 90.425781 65.613281 C 87.121094 62.285156 82.71875 60.460938 78.011719 60.460938 Z M 78.011719 107.308594 C 70.199219 107.308594 62.835938 104.261719 57.316406 98.726562 C 51.777344 93.207031 48.734375 85.863281 48.734375 78.03125 C 48.734375 70.199219 51.777344 62.855469 57.316406 57.335938 C 62.835938 51.796875 70.199219 48.753906 78.011719 48.753906 C 85.839844 48.753906 93.1875 51.796875 98.726562 57.335938 C 104.242188 62.855469 107.285156 70.199219 107.285156 78.03125 C 107.285156 85.863281 104.242188 93.207031 98.726562 98.726562 C 93.1875 104.261719 85.839844 107.308594 78.011719 107.308594 " fill-opacity="1" fill-rule="nonzero"/></svg>